<svg xmlns="http://www.w3.org/2000/svg" xmlns:xlink="http://www.w3.org/1999/xlink" width="122" height="23.81" viewBox="0 0 122 23.81">
  <defs>
    <clipPath id="clip-path">
      <rect id="Rectangle_4" data-name="Rectangle 4" width="21.612" height="23.364" fill="#2af"/>
    </clipPath>
  </defs>
  <g id="xiden-logo" transform="translate(-240 -194)">
    <path id="x-letter" d="M18.732,0,11.748,8.615,4.836,0H0V.032L9.418,11.674,0,23.364V23.4H4.787l6.961-8.636L18.781,23.4h4.787v-.032L14.12,11.674,23.568.032V0Z" transform="translate(240 194)" fill="#2af"/>
    <path id="i-letter" d="M3.785,0,0,4.38V23.364l3.785-5.251Z" transform="translate(270.484 194)" fill="#2af"/>
    <g id="d-letter" transform="translate(282.615 194.032)">
      <g id="Group_1" data-name="Group 1" transform="translate(0 0)" clip-path="url(#clip-path)">
        <path id="Path_5" data-name="Path 5" d="M8.631,20.368a9.458,9.458,0,0,0,3.643-.687,8.872,8.872,0,0,0,2.865-1.868,8.536,8.536,0,0,0,2.547-6.131,8.515,8.515,0,0,0-.672-3.369,8.352,8.352,0,0,0-1.892-2.762,9.079,9.079,0,0,0-2.883-1.868A9.363,9.363,0,0,0,8.631,3H3.785L0,0H9.055a12.926,12.926,0,0,1,4.9.924,12.749,12.749,0,0,1,3.979,2.518,12.029,12.029,0,0,1,2.688,3.713,10.6,10.6,0,0,1,.99,4.542,10.926,10.926,0,0,1-.955,4.542,11.505,11.505,0,0,1-2.635,3.7,12.62,12.62,0,0,1-3.979,2.5,13.243,13.243,0,0,1-4.988.925H3.785L0,20.368Z" transform="translate(0 -0.001)" fill="#2af" fill-rule="evenodd"/>
      </g>
    </g>
    <path id="e-letter" d="M3.624,19.985,0,23.268H13.73l3.152-3.283Zm0-10.351L0,12.918H13.73l3.152-3.283ZM3.624,0,0,3.283H13.73L16.882,0Z" transform="translate(312.574 194.128)" fill="#2af"/>
    <path id="n-letter" d="M0,0V23.81H3.573V9.052l13.3,14.758h4.966ZM21.839,0,18.054,4.379V14.867l3.785-5.251Z" transform="translate(340.161 194)" fill="#2af"/>
  </g>
</svg>
